HIERARCHY
ROOT Hips
{
	OFFSET 0.00000 0.00000 0.00000
	CHANNELS 6 Xposition Yposition Zposition Yrotation Zrotation Xrotation 
	JOINT Lumbar
	{
		OFFSET 0 0 0
		CHANNELS 3 Zrotation Xrotation Yrotation
		JOINT Neck
		{
			OFFSET 0.00 0.2701 0.00
			CHANNELS 3 Zrotation Xrotation Yrotation
			End Site
			{
				OFFSET 0.00 0.1379 0.00
			}
		}
		JOINT RightShoulder
		{
			OFFSET 0.0119 0.2289 0.1181
			CHANNELS 3 Zrotation Xrotation Yrotation
			JOINT RightElbow
			{
				OFFSET 0.00 -0.1475 0.00
				CHANNELS 2 Zrotation Yrotation
				JOINT RightWrist
				{
					OFFSET 0.00 -0.1605 0.00
					CHANNELS 2 Zrotation Xrotation
					End Site
					{
						OFFSET 0.0040 -0.1068 0.0006
					}
				}
			}
		}
		JOINT LeftShoulder
		{
			OFFSET 0.0119 0.2289 -0.1181
			CHANNELS 3 Zrotation Xrotation Yrotation
			JOINT LeftElbow
			{
				OFFSET 0.00 -0.1475 0.00
				CHANNELS 2 Zrotation Yrotation
				JOINT LeftWrist
				{
					OFFSET 0.00 -0.1605 0.00
					CHANNELS 2 Zrotation Xrotation
					End Site
					{
						OFFSET 0.0040 -0.1068 -0.0006
					}
				}
			}
		}
	}
	JOINT RightHip
	{
		OFFSET 0.0316 -0.0424 0.0458
		CHANNELS 3 Zrotation Xrotation Yrotation
		JOINT RightKnee
		{
			OFFSET 0.00 -0.2438 0.00
			CHANNELS 1 Zrotation
			JOINT RightAnkle
			{
				OFFSET 0.00 -0.2449 0.00
				CHANNELS 3 Zrotation Xrotation Yrotation
				End Site
				{
					OFFSET 0.1237 -0.0542 0.0051
				}
			}
		}
	}
	JOINT LeftHip
	{
		OFFSET 0.0316 -0.0424 -0.0458
		CHANNELS 3 Zrotation Xrotation Yrotation
		JOINT LeftKnee
		{
			OFFSET 0.00 -0.2438 0.00
			CHANNELS 1 Zrotation
			JOINT LeftAnkle
			{
				OFFSET 0.00 -0.2449 0.00
				CHANNELS 3 Zrotation Xrotation Yrotation
				End Site
				{
					OFFSET 0.1237 -0.0542 -0.0051
				}
			}
		}
	}
}
MOTION
Frames: 11
Frame Time: 0.02
0.84337 -0.01319 0.64973 -154.67209 -73.77351 -2.95861 -7.26084 1.62924 1.94873 6.99541 -16.77805 -0.83079 81.43955 -22.0299 -1.74327 8.84908 91.71694 -5.46398 -17.06274 97.15003 29.01863 21.65286 5.36402 -76.13186 0.33005 9.60436 108.22817 -14.30615 -2.52951 -42.68498 -9.36958 -3.05364 -2.3475 115.8639 0.5163 6.42177 -50.02556 -9.40169 4.79489 3.33979
0.84361 -0.01417 0.65007 -156.0447 -74.2451 -4.27346 -7.64786 1.75313 1.49353 7.95866 -17.36903 -0.83079 82.52382 -20.82125 -2.67914 8.67974 90.47322 -4.43305 -16.82009 99.20921 30.27691 33.90703 5.30608 -76.31938 1.42691 8.4602 109.06503 -14.17284 -2.75091 -43.22684 -9.32525 -3.036 -2.33582 116.8113 0.82315 6.40073 -50.72194 -9.32706 4.79713 3.33696
0.84393 -0.01531 0.65031 -157.62904 -74.7868 -5.81236 -8.01134 1.88433 1.02876 9.02003 -17.85751 -0.83079 83.6271 -19.55033 -3.40039 8.57488 89.69794 -3.51004 -16.28694 101.45926 31.55234 46.86088 5.34124 -77.80548 2.04557 6.95345 110.04029 -14.00845 -2.97569 -43.8539 -9.27737 -3.01716 -2.32399 117.90191 1.18262 6.38228 -51.48948 -9.24448 4.79409 3.33068
0.8442 -0.01638 0.65058 -159.12233 -75.28926 -7.25521 -8.38878 2.01205 0.57533 10.02589 -18.38955 -0.83079 84.71523 -18.30951 -4.2045 8.44233 88.7125 -2.55726 -15.90475 103.58959 32.78831 59.17911 5.34302 -78.61374 2.87039 5.6598 110.94591 -13.85769 -3.19822 -44.44279 -9.23113 -2.99904 -2.31227 118.92074 1.50929 6.34495 -52.22274 -9.16776 4.79487 3.32686
0.84452 -0.01745 0.65089 -160.61284 -75.82394 -8.69175 -8.75654 2.14073 0.08798 11.08452 -18.93898 -0.83079 85.83955 -17.04971 -5.08462 8.3011 87.7194 -1.52067 -15.44895 105.86917 34.17278 72.97322 5.31275 -79.74806 3.76725 4.15945 111.88351 -13.70641 -3.42883 -45.03154 -9.18474 -2.9798 -2.30013 119.973 1.87467 6.37398 -52.96814 -9.08192 4.79022 3.3196
0.84477 -0.01855 0.65112 -162.14117 -76.30712 -10.1765 -9.13631 2.26865 -0.32757 12.05201 -19.4263 -0.83079 86.88768 -15.8219 -5.7501 8.19395 86.83289 -0.67959 -15.07237 107.87184 35.23958 83.75502 5.36749 -80.53618 4.38683 3.00579 112.78455 -13.5511 -3.6398 -45.63912 -9.13788 -2.96282 -2.28896 120.98496 2.17111 6.27201 -53.70173 -9.01307 4.79523 3.31847
0.84482 -0.0197 0.6512 -163.85552 -76.63798 -11.87655 -9.56665 2.39744 -0.56259 12.76652 -19.76195 -0.83079 87.74341 -14.66328 -5.87471 8.16607 86.37232 -0.42474 -15.01967 109.15384 35.50637 86.70236 5.65965 -79.96335 4.40619 2.88264 113.5677 -13.37737 -3.81747 -46.28746 -9.08985 -2.95149 -2.27995 121.8828 2.26802 5.76537 -54.40797 -8.99285 4.83039 3.33625
0.8448 -0.02087 0.65121 -165.57366 -76.91276 -13.59011 -10.00684 2.52437 -0.72007 13.38011 -20.03743 -0.83079 88.51541 -13.54735 -5.78903 8.17069 85.96647 -0.35274 -15.05071 110.13215 35.43556 86.46762 6.03206 -79.02279 4.15005 3.12357 114.30499 -13.20409 -3.97151 -46.94927 -9.04158 -2.94261 -2.27201 122.72802 2.29261 5.13513 -55.09478 -8.99007 4.87498 3.36007
0.84481 -0.02201 0.65124 -167.20309 -77.20915 -15.20812 -10.43505 2.64904 -0.90061 14.02559 -20.3451 -0.83079 89.31164 -12.43457 -5.79775 8.15968 85.36775 -0.14791 -15.01957 111.1915 35.46637 87.24147 6.34647 -78.3076 3.98664 3.20875 115.05303 -13.03995 -4.12065 -47.59916 -8.99394 -2.93334 -2.26406 123.577 2.34815 4.59016 -55.77612 -8.97929 4.91379 3.38032
0.84486 -0.02326 0.65132 -169.2119 -77.52629 -17.21545 -10.89608 2.78699 -1.13647 14.73745 -20.63494 -0.83079 90.17228 -11.22102 -5.80329 8.15319 85.4655 -0.14793 -15.07686 112.50341 35.72123 89.86166 6.74204 -77.37409 3.94818 3.24204 115.85213 -12.8333 -4.33285 -48.27886 -8.94406 -2.92131 -2.25431 124.5195 2.41493 3.92326 -56.52284 -8.96825 4.95878 3.40393
0.84479 -0.02429 0.65129 -170.42287 -77.78355 -18.40723 -11.289 2.89684 -1.23413 15.2809 -20.9413 -0.83079 90.87199 -10.23238 -5.76938 8.14585 84.15569 0.22575 -14.97782 113.20796 35.42324 87.90449 7.00277 -76.81258 3.58497 3.47237 116.52764 -12.71813 -4.412 -48.89561 -8.89874 -2.91519 -2.24831 125.24857 2.43883 3.47979 -57.12472 -8.96239 4.99315 3.42203
